<svg width="118" height="118" viewBox="0 0 118 118" fill="none" xmlns="http://www.w3.org/2000/svg">
    <rect width="118" height="118" rx="40" fill="#DE3886"/>
    <path d="M59.5 63.853a6.433 6.433 0 0 0-6.426 6.426 6.433 6.433 0 0 0 6.426 6.427 6.433 6.433 0 0 0 6.426-6.427 6.433 6.433 0 0 0-6.426-6.425zM63.784 79.92h-8.568a4.288 4.288 0 0 0-4.284 4.284h17.136a4.278 4.278 0 0 0-4.284-4.284zM78.778 63.853a6.433 6.433 0 0 0-6.426 6.426 6.433 6.433 0 0 0 6.426 6.427 6.433 6.433 0 0 0 6.426-6.427c.016-3.543-2.866-6.425-6.426-6.425zM85.22 79.92H74.51a4.288 4.288 0 0 0-4.284 4.284H85.22V79.92zM33.78 70.28a6.433 6.433 0 0 0 6.426 6.425 6.433 6.433 0 0 0 6.426-6.425 6.433 6.433 0 0 0-6.426-6.427 6.433 6.433 0 0 0-6.426 6.426zM33.78 79.92h10.71a4.288 4.288 0 0 1 4.284 4.284H33.78V79.92zM72.352 32.78a6.433 6.433 0 0 0-6.426 6.425 6.433 6.433 0 0 0 6.426 6.426 6.433 6.433 0 0 0 6.426-6.426 6.423 6.423 0 0 0-6.426-6.426zM80.92 56.356v-3.213a4.288 4.288 0 0 0-4.284-4.284h-8.568a4.288 4.288 0 0 0-4.284 4.284v3.213H59.5v4.284h25.72v-4.284h-4.3zM62.713 39.221c0-2.473.96-4.725 2.504-6.426H38.064c-2.346-.016-4.284 1.922-4.284 4.284v19.278a4.288 4.288 0 0 0 4.284 4.284h18.207v-7.497h4.284c0-3.276 2.11-6.032 5.04-7.056-1.764-1.748-2.882-4.174-2.882-6.867zm-22.491 0h8.568v4.284h-8.568v-4.284zm12.852 12.852H40.222v-4.284h12.852v4.284zm4.284-8.568h-4.284v-4.284h4.284v4.284z" fill="#F9C2E1"/>
</svg>
