<svg width="184" height="202" viewBox="0 0 184 202" fill="none" xmlns="http://www.w3.org/2000/svg">
<g id=".">
<path id="Vector" fill-rule="evenodd" clip-rule="evenodd" d="M58.5714 33.6667C58.5714 24.7377 62.0934 16.1745 68.3624 9.86074C74.6315 3.54701 83.1342 0 92 0C100.866 0 109.369 3.54701 115.638 9.86074C121.907 16.1745 125.429 24.7377 125.429 33.6667V78.5556C125.429 87.4845 121.907 96.0478 115.638 102.361C109.369 108.675 100.866 112.222 92 112.222C83.1342 112.222 74.6315 108.675 68.3624 102.361C62.0934 96.0478 58.5714 87.4845 58.5714 78.5556V33.6667ZM103.143 156.326C121.709 153.624 138.687 144.276 150.966 129.992C163.245 115.709 170.003 97.4483 170 78.5556C170 75.5792 168.826 72.7248 166.736 70.6202C164.647 68.5157 161.812 67.3333 158.857 67.3333C155.902 67.3333 153.068 68.5157 150.978 70.6202C148.888 72.7248 147.714 75.5792 147.714 78.5556C147.714 93.4371 141.844 107.709 131.396 118.232C120.947 128.755 106.776 134.667 92 134.667C77.2237 134.667 63.0525 128.755 52.6041 118.232C42.1556 107.709 36.2857 93.4371 36.2857 78.5556C36.2857 75.5792 35.1117 72.7248 33.022 70.6202C30.9324 68.5157 28.0981 67.3333 25.1429 67.3333C22.1876 67.3333 19.3534 68.5157 17.2637 70.6202C15.174 72.7248 14 75.5792 14 78.5556C13.9975 97.4483 20.7548 115.709 33.0337 129.992C45.3126 144.276 62.2908 153.624 80.8571 156.326V179.556H47.4286C44.4733 179.556 41.6391 180.738 39.5494 182.842C37.4597 184.947 36.2857 187.801 36.2857 190.778C36.2857 193.754 37.4597 196.609 39.5494 198.713C41.6391 200.818 44.4733 202 47.4286 202H136.571C139.527 202 142.361 200.818 144.451 198.713C146.54 196.609 147.714 193.754 147.714 190.778C147.714 187.801 146.54 184.947 144.451 182.842C142.361 180.738 139.527 179.556 136.571 179.556H103.143V156.326Z" fill="#DCE1F6"/>
</g>
</svg>
