<svg width="225" height="187" viewBox="0 0 225 187" fill="none" xmlns="http://www.w3.org/2000/svg">
<path id="Vector" d="M166.875 183.166H221.25V160.75C221.25 153.762 219.137 146.947 215.205 141.254C211.273 135.561 205.718 131.272 199.312 128.982C192.906 126.693 185.967 126.518 179.46 128.481C172.953 130.444 167.201 134.448 163.003 139.936M166.875 183.166H58.125M166.875 183.166V160.75C166.875 153.397 165.505 146.369 163.003 139.936M163.003 139.936C158.965 129.534 151.995 120.618 142.993 114.337C133.992 108.057 123.37 104.7 112.5 104.7C101.63 104.7 91.0084 108.057 82.0065 114.337C73.0047 120.618 66.035 129.534 61.9965 139.936M58.125 183.166H3.75V160.75C3.7505 153.762 5.8634 146.947 9.79499 141.254C13.7266 135.561 19.2815 131.272 25.6876 128.982C32.0937 126.693 39.0326 126.518 45.5398 128.481C52.047 130.444 57.7991 134.448 61.9965 139.936M58.125 183.166V160.75C58.125 153.397 59.4952 146.369 61.9965 139.936M145.125 37.458C145.125 46.3759 141.688 54.9286 135.569 61.2345C129.451 67.5404 121.153 71.083 112.5 71.083C103.847 71.083 95.549 67.5404 89.4306 61.2345C83.3123 54.9286 79.875 46.3759 79.875 37.458C79.875 28.5401 83.3123 19.9875 89.4306 13.6815C95.549 7.37563 103.847 3.83301 112.5 3.83301C121.153 3.83301 129.451 7.37563 135.569 13.6815C141.688 19.9875 145.125 28.5401 145.125 37.458ZM210.375 71.083C210.375 77.0283 208.083 82.73 204.005 86.934C199.926 91.1379 194.393 93.4997 188.625 93.4997C182.857 93.4997 177.324 91.1379 173.245 86.934C169.167 82.73 166.875 77.0283 166.875 71.083C166.875 65.1377 169.167 59.436 173.245 55.232C177.324 51.0281 182.857 48.6663 188.625 48.6663C194.393 48.6663 199.926 51.0281 204.005 55.232C208.083 59.436 210.375 65.1377 210.375 71.083ZM58.125 71.083C58.125 77.0283 55.8335 82.73 51.7546 86.934C47.6757 91.1379 42.1435 93.4997 36.375 93.4997C30.6065 93.4997 25.0743 91.1379 20.9954 86.934C16.9165 82.73 14.625 77.0283 14.625 71.083C14.625 65.1377 16.9165 59.436 20.9954 55.232C25.0743 51.0281 30.6065 48.6663 36.375 48.6663C42.1435 48.6663 47.6757 51.0281 51.7546 55.232C55.8335 59.436 58.125 65.1377 58.125 71.083Z" stroke="#DCE1F6" stroke-width="6" stroke-linecap="round" stroke-linejoin="round"/>
</svg>
