<svg width="119" height="118" viewBox="0 0 119 118" fill="none" xmlns="http://www.w3.org/2000/svg">
    <rect width="119" height="118" rx="40" fill="#4D8CFF"/>
    <path d="M51.474 56.657v-9.631A8.027 8.027 0 0 1 59.5 39a8.027 8.027 0 0 1 8.026 8.026v9.631a8.027 8.027 0 0 1-8.026 8.026 8.027 8.027 0 0 1-8.026-8.026z" fill="#B9D3F9"/>
    <path d="M74.852 61.375a15.974 15.974 0 0 1-12.128 11.003v6.75h2.401a2.418 2.418 0 0 1 2.415 2.414 2.418 2.418 0 0 1-2.415 2.415h-11.25a2.418 2.418 0 0 1-2.414-2.415 2.418 2.418 0 0 1 2.414-2.414h2.415v-6.75a15.93 15.93 0 0 1-12.128-11.003 2.387 2.387 0 0 1 1.591-3.005 2.408 2.408 0 0 1 3.019 1.591c1.44 4.665 5.858 7.93 10.742 7.93 4.884 0 9.302-3.265 10.742-7.93a2.402 2.402 0 0 1 3.019-1.591c1.248.384 1.961 1.742 1.577 3.005zM74.482 44.61a8.1 8.1 0 0 1 1.084 4.02c0 1.412-.37 2.798-1.07 4.02-.453.767-1.441 1.028-2.196.59a1.61 1.61 0 0 1-.59-2.196 4.786 4.786 0 0 0 .645-2.415c0-.85-.22-1.673-.645-2.414a1.61 1.61 0 0 1 .59-2.195 1.601 1.601 0 0 1 2.182.59zM80.175 41.386C81.41 43.513 82 45.872 82 48.63c0 2.552-.645 5.104-1.811 7.217a1.629 1.629 0 0 1-2.222.63 1.637 1.637 0 0 1-.632-2.222c.906-1.633 1.4-3.636 1.4-5.625 0-2.154-.453-3.992-1.386-5.611a1.628 1.628 0 0 1 .59-2.223 1.635 1.635 0 0 1 2.236.59zM44.518 52.636a8.086 8.086 0 0 1-1.07-4.02c0-1.413.37-2.8 1.084-4.02a1.611 1.611 0 0 1 2.195-.59 1.61 1.61 0 0 1 .59 2.195 4.786 4.786 0 0 0-.645 2.415c0 .85.22 1.673.645 2.414a1.61 1.61 0 0 1-.59 2.195c-.782.44-1.756.192-2.209-.59zM41.665 54.255a1.64 1.64 0 0 1-.632 2.223 1.64 1.64 0 0 1-2.222-.631C37.645 53.734 37 51.182 37 48.63c0-2.744.59-5.117 1.825-7.244a1.619 1.619 0 0 1 2.222-.59 1.622 1.622 0 0 1 .59 2.223c-.933 1.619-1.386 3.443-1.386 5.611 0 2.003.508 3.992 1.414 5.625z" fill="#B9D3F9"/>
</svg>
